<svg width="33" height="32" viewBox="0 0 33 32" fill="none" xmlns="http://www.w3.org/2000/svg">
<circle cx="25.6663" cy="23.3333" r="7.33333" fill="#D9D9D9"/>
<circle cx="7.33333" cy="23.3333" r="7.33333" fill="#D9D9D9"/>
<circle cx="17.1115" cy="16" r="15.8889" fill="#7F7CFF"/>
<ellipse cx="7.94453" cy="7.44444" rx="5.5" ry="6.11111" transform="rotate(-170.83 7.94453 7.44444)" fill="white"/>
<ellipse cx="25.0561" cy="7.44438" rx="5.5" ry="6.11111" transform="rotate(-8.1199 25.0561 7.44438)" fill="white"/>
<path d="M26.8889 7.44442C26.8889 8.79445 25.7945 9.88887 24.4444 9.88887C23.0944 9.88887 22 8.79445 22 7.44442C22 6.09439 23.0944 4.99998 24.4444 4.99998C25.7945 4.99998 26.8889 6.09439 26.8889 7.44442Z" fill="black"/>
<circle cx="8.55577" cy="7.44442" r="2.44444" fill="black"/>
<circle cx="26.2781" cy="5.61113" r="0.611111" fill="white"/>
<circle cx="10.3894" cy="5.61113" r="0.611111" fill="white"/>
</svg>
